<mxfile host="app.diagrams.net" modified="2024-01-23T09:24:01.381Z" agent="Mozilla/5.0 (Windows NT 10.0; Win64; x64) AppleWebKit/537.36 (KHTML, like Gecko) Chrome/120.0.0.0 Safari/537.36 OPR/106.0.0.0" etag="z8g5l_kC779wkbfBlIpT" version="22.1.21" type="device">
  <diagram name="Page-1" id="5987fedf-629e-85c4-6858-42fee31821dd">
    <mxGraphModel dx="2620" dy="2657" grid="1" gridSize="10" guides="1" tooltips="1" connect="1" arrows="1" fold="1" page="1" pageScale="1.5" pageWidth="1169" pageHeight="826" background="none" math="0" shadow="0">
      <root>
        <mxCell id="0" style=";html=1;" />
        <mxCell id="1" style=";html=1;" parent="0" />
        <mxCell id="GpxkgZDPcRO_rBGPrZ_7-2" value="&lt;font style=&quot;font-size: 35px;&quot;&gt;Shopinaka (Site e-commerce)&lt;/font&gt;" style="text;html=1;strokeColor=none;fillColor=none;align=center;verticalAlign=middle;whiteSpace=wrap;rounded=0;shadow=0;fontSize=30;fontColor=#000000;" parent="1" vertex="1">
          <mxGeometry x="790" y="360" width="274" height="110" as="geometry" />
        </mxCell>
        <mxCell id="diufSr1Yr_5f3iuIc5rI-4" value="" style="ellipse;whiteSpace=wrap;html=1;rounded=0;shadow=0;strokeWidth=15;fillColor=none;fontSize=24;align=right;strokeColor=#6c8ebf;opacity=50;" vertex="1" parent="1">
          <mxGeometry x="670" y="310" width="500" height="230" as="geometry" />
        </mxCell>
        <mxCell id="diufSr1Yr_5f3iuIc5rI-5" value="" style="ellipse;whiteSpace=wrap;html=1;rounded=0;shadow=0;strokeWidth=15;fillColor=none;fontSize=24;align=right;strokeColor=#6c8ebf;opacity=50;" vertex="1" parent="1">
          <mxGeometry x="430" y="-50" width="500" height="230" as="geometry" />
        </mxCell>
        <mxCell id="diufSr1Yr_5f3iuIc5rI-6" value="&lt;font style=&quot;font-size: 35px;&quot;&gt;Utilisateur (Internaut)&lt;/font&gt;" style="text;html=1;strokeColor=none;fillColor=none;align=center;verticalAlign=middle;whiteSpace=wrap;rounded=0;shadow=0;fontSize=30;fontColor=#000000;" vertex="1" parent="1">
          <mxGeometry x="585" y="55" width="190" height="30" as="geometry" />
        </mxCell>
        <mxCell id="diufSr1Yr_5f3iuIc5rI-11" value="" style="ellipse;whiteSpace=wrap;html=1;rounded=0;shadow=0;strokeWidth=15;fillColor=none;fontSize=24;align=right;strokeColor=#6c8ebf;opacity=50;" vertex="1" parent="1">
          <mxGeometry x="1310" y="-50" width="500" height="230" as="geometry" />
        </mxCell>
        <mxCell id="diufSr1Yr_5f3iuIc5rI-12" value="&lt;font style=&quot;font-size: 35px;&quot;&gt;Gants de boxe&lt;/font&gt;" style="text;html=1;strokeColor=none;fillColor=none;align=center;verticalAlign=middle;whiteSpace=wrap;rounded=0;shadow=0;fontSize=20;" vertex="1" parent="1">
          <mxGeometry x="1450" y="40" width="245" height="30" as="geometry" />
        </mxCell>
        <mxCell id="diufSr1Yr_5f3iuIc5rI-13" value="" style="rounded=0;whiteSpace=wrap;html=1;fillColor=none;strokeWidth=15;strokeColor=#6c8ebf;" vertex="1" parent="1">
          <mxGeometry x="930" y="760" width="990" height="150" as="geometry" />
        </mxCell>
        <mxCell id="diufSr1Yr_5f3iuIc5rI-14" value="&lt;font style=&quot;font-size: 35px;&quot;&gt;Vendre des gants de boxe personnalisés et adaptés à la morphologie des utilisateurs.&amp;nbsp;&amp;nbsp;&lt;/font&gt;" style="text;html=1;strokeColor=none;fillColor=none;align=center;verticalAlign=middle;whiteSpace=wrap;rounded=0;shadow=0;fontSize=20;" vertex="1" parent="1">
          <mxGeometry x="1005" y="778.75" width="840" height="92.5" as="geometry" />
        </mxCell>
        <mxCell id="diufSr1Yr_5f3iuIc5rI-15" value="" style="endArrow=classic;html=1;rounded=0;exitX=1;exitY=1;exitDx=0;exitDy=0;entryX=0.5;entryY=0;entryDx=0;entryDy=0;fillColor=#d5e8d4;strokeColor=#82b366;strokeWidth=11;" edge="1" parent="1" source="diufSr1Yr_5f3iuIc5rI-5" target="diufSr1Yr_5f3iuIc5rI-4">
          <mxGeometry width="50" height="50" relative="1" as="geometry">
            <mxPoint x="1260" y="240" as="sourcePoint" />
            <mxPoint x="1310" y="190" as="targetPoint" />
          </mxGeometry>
        </mxCell>
        <mxCell id="diufSr1Yr_5f3iuIc5rI-16" value="" style="endArrow=classic;html=1;rounded=0;exitX=0.5;exitY=0;exitDx=0;exitDy=0;entryX=0;entryY=1;entryDx=0;entryDy=0;fillColor=#d5e8d4;strokeColor=#82b366;strokeWidth=11;" edge="1" parent="1" source="diufSr1Yr_5f3iuIc5rI-4" target="diufSr1Yr_5f3iuIc5rI-11">
          <mxGeometry width="50" height="50" relative="1" as="geometry">
            <mxPoint x="1270" y="151" as="sourcePoint" />
            <mxPoint x="1458" y="330" as="targetPoint" />
          </mxGeometry>
        </mxCell>
        <mxCell id="diufSr1Yr_5f3iuIc5rI-18" value="" style="shape=flexArrow;endArrow=classic;html=1;rounded=0;entryX=0.393;entryY=-0.013;entryDx=0;entryDy=0;entryPerimeter=0;fillColor=#d5e8d4;strokeColor=#82b366;strokeWidth=8;" edge="1" parent="1" target="diufSr1Yr_5f3iuIc5rI-13">
          <mxGeometry width="50" height="50" relative="1" as="geometry">
            <mxPoint x="1310" y="190" as="sourcePoint" />
            <mxPoint x="1620" y="320" as="targetPoint" />
          </mxGeometry>
        </mxCell>
      </root>
    </mxGraphModel>
  </diagram>
</mxfile>
